<svg width="36" height="36" viewBox="0 0 36 36" fill="none" xmlns="http://www.w3.org/2000/svg">
<path d="M3.75489 35.8125H19.8083C21.7749 35.8125 23.3757 34.1587 23.3757 32.1271V31.1628C23.3757 30.8234 23.1097 30.5485 22.7812 30.5485C22.4527 30.5485 22.1866 30.8234 22.1866 31.1628V32.1271C22.1866 33.4815 21.1194 34.584 19.8083 34.584H3.75489C2.44388 34.584 1.37663 33.4815 1.37663 32.1271V8.78632C1.37663 7.43195 2.44388 6.3294 3.75489 6.3294H10.2953C10.6238 6.3294 10.8899 6.05453 10.8899 5.71517C10.8899 5.37581 10.6238 5.10094 10.2953 5.10094H3.75489C1.78836 5.10094 0.1875 6.75474 0.1875 8.78632V32.1271C0.1875 34.1587 1.78836 35.8125 3.75489 35.8125Z" fill="white"/>
<path d="M3.75489 8.1723H10.2953C10.6238 8.1723 10.8899 7.89743 10.8899 7.55807C10.8899 7.2187 10.6238 6.94383 10.2953 6.94383H3.75489C2.7709 6.94383 1.97119 7.76999 1.97119 8.78653V32.1273C1.97119 33.1438 2.7709 33.97 3.75489 33.97H19.8083C20.7923 33.97 21.592 33.1438 21.592 32.1273V31.6298C21.592 31.2904 21.326 31.0155 20.9975 31.0155C20.669 31.0155 20.4029 31.2904 20.4029 31.6298V32.1273C20.4029 32.4667 20.1368 32.7415 19.8083 32.7415H3.75489C3.42639 32.7415 3.16032 32.4667 3.16032 32.1273V8.78653C3.16032 8.44716 3.42639 8.1723 3.75489 8.1723Z" fill="white"/>
<path d="M13.8631 14.929H19.3571C19.6856 14.929 19.9517 14.6542 19.9517 14.3148C19.9517 13.9754 19.6856 13.7006 19.3571 13.7006H13.8631C13.2076 13.7006 12.674 13.1493 12.674 12.4721V2.64442C12.674 1.96722 13.2076 1.41596 13.8631 1.41596H26.3488C27.0043 1.41596 27.5379 1.96722 27.5379 2.64442V6.42195C27.5483 7.22814 28.7167 7.22967 28.7271 6.42195V2.64442C28.7271 1.29005 27.6598 0.1875 26.3488 0.1875H13.8631C12.5521 0.1875 11.4849 1.29005 11.4849 2.64442V12.4721C11.4849 13.8265 12.5521 14.929 13.8631 14.929Z" fill="white"/>
<path d="M19.269 3.10202C17.7603 2.18989 15.7001 3.45673 15.758 5.26258V9.85564C15.7015 11.6599 17.7587 12.9299 19.269 12.0162L23.3729 9.72053C24.1533 9.28442 24.6185 8.4767 24.6185 7.55998C24.6185 6.64325 24.1532 5.83553 23.3729 5.39942L19.2705 3.10375L19.269 3.10202ZM22.8051 8.63776L18.7012 10.9334C17.9491 11.391 16.916 10.7553 16.9458 9.85392V5.26085C16.9175 4.35792 17.9476 3.72372 18.7012 4.18133L22.8036 6.477C23.6241 6.89775 23.6256 8.21682 22.8036 8.63756L22.8051 8.63776Z" fill="white"/>
<path d="M34.4169 11.555C34.2073 11.3278 31.7191 8.77717 31.5972 8.64202C30.1999 7.19703 27.9243 7.19703 26.5271 8.64202L14.1038 21.4762C14.0265 21.5668 13.9626 21.6697 13.9418 21.7895C13.4885 24.1174 12.549 28.9959 12.0912 31.3467C11.9991 31.7598 12.3915 32.1667 12.7913 32.0699C15.0833 31.5908 19.7788 30.6295 22.0426 30.1581C22.157 30.1305 22.2596 30.0706 22.3458 29.9908L34.7691 17.1566C36.3283 15.5657 36.0817 12.96 34.4169 11.555ZM27.3685 9.51118C28.2797 8.56988 29.7498 8.54685 30.6877 9.44208L19.1381 21.3737C18.1392 20.9406 17.1612 20.8485 16.3451 20.8992L27.3685 9.51118ZM13.4319 30.6867L14.1662 26.8938C15.5054 27.4037 16.6099 28.5446 17.1049 29.9297L13.4319 30.6883L13.4319 30.6867ZM21.472 29.0252L18.2851 29.684C17.6712 27.8198 16.2071 26.3057 14.4011 25.6731L15.0388 22.3793C19.1058 21.051 22.752 24.8285 21.4704 29.0267L21.472 29.0252ZM21.851 23.6691C21.4125 23.0165 20.8566 22.4422 20.2249 21.9892L31.529 10.3096L33.1551 11.9895C30.4098 14.8257 24.6246 20.8022 21.851 23.6691ZM33.928 16.2893L22.9047 27.6772C22.9537 26.8342 22.8645 25.8238 22.4454 24.7919C25.1818 21.9649 31.2137 15.7335 33.995 12.8603C34.8615 13.8292 34.8407 15.348 33.928 16.2893Z" fill="white"/>
</svg>
