<svg width="16" height="16" viewBox="0 0 16 16" fill="none" xmlns="http://www.w3.org/2000/svg">
<path d="M14.1834 1.37441C12.0742 3.19991 10.2897 4.93766 8.65594 7.20491C7.93544 8.20491 7.13419 9.38191 6.61044 10.4932C6.31144 11.0824 5.77244 12.0032 5.58869 12.8884C4.58369 11.9534 3.50419 10.8922 2.39969 10.0609C1.61244 9.46866 -0.655056 10.6762 0.267944 11.3707C1.92219 12.6149 3.29794 14.1647 4.90694 15.4644C5.57994 16.0074 7.07144 14.8282 7.42194 14.3334C8.57244 12.7034 8.72969 10.7109 9.56819 8.93291C10.8484 6.21366 13.1189 3.97991 15.3607 2.04016C16.8459 0.654911 15.3119 0.399411 14.1857 1.37441" fill="#37B34A"/>
</svg>