<svg width="66" height="66" viewBox="0 0 66 66" fill="none" xmlns="http://www.w3.org/2000/svg">
<path d="M33 1.5C15.6026 1.5 1.5 15.6026 1.5 33C1.5 50.3974 15.6026 64.5 33 64.5C50.3974 64.5 64.5 50.3974 64.5 33C64.5 15.6026 50.3974 1.5 33 1.5Z" stroke="url(#paint0_linear_24_5)" stroke-width="3" stroke-linecap="round" stroke-linejoin="round"/>
<mask id="path-2-outside-1_24_5" maskUnits="userSpaceOnUse" x="18" y="15" width="30" height="49" fill="black">
<rect fill="white" x="18" y="15" width="30" height="49"/>
<path d="M21 60.504V39L33 18L45 39V60.504"/>
</mask>
<path d="M18 60.504C18 62.1609 19.3431 63.504 21 63.504C22.6569 63.504 24 62.1609 24 60.504H18ZM21 39L18.3953 37.5116C18.1362 37.9649 18 38.4779 18 39H21ZM33 18L35.6047 16.5116C35.0706 15.5769 34.0766 15 33 15C31.9234 15 30.9294 15.5769 30.3953 16.5116L33 18ZM45 39H48C48 38.4779 47.8638 37.9649 47.6047 37.5116L45 39ZM42 60.504C42 62.1609 43.3431 63.504 45 63.504C46.6569 63.504 48 62.1609 48 60.504H42ZM24 60.504V39H18V60.504H24ZM23.6047 40.4884L35.6047 19.4884L30.3953 16.5116L18.3953 37.5116L23.6047 40.4884ZM30.3953 19.4884L42.3953 40.4884L47.6047 37.5116L35.6047 16.5116L30.3953 19.4884ZM42 39V60.504H48V39H42Z" fill="url(#paint1_linear_24_5)" mask="url(#path-2-outside-1_24_5)"/>
<mask id="path-4-outside-2_24_5" maskUnits="userSpaceOnUse" x="18" y="36" width="30" height="9" fill="black">
<rect fill="white" x="18" y="36" width="30" height="9"/>
<path d="M21 39C21 39 24.381 42 27 42C29.619 42 33 39 33 39C33 39 36.381 42 39 42C41.619 42 45 39 45 39"/>
</mask>
<path d="M22.9911 36.756C21.7518 35.6564 19.8557 35.7696 18.756 37.0089C17.6564 38.2482 17.7696 40.1443 19.0089 41.244L22.9911 36.756ZM33 39L34.9911 36.756C33.8551 35.748 32.1449 35.748 31.0089 36.756L33 39ZM46.9911 41.244C48.2304 40.1443 48.3436 38.2482 47.244 37.0089C46.1443 35.7696 44.2482 35.6564 43.0089 36.756L46.9911 41.244ZM21 39C19.0089 41.244 19.0093 41.2444 19.0098 41.2448C19.0099 41.2449 19.0104 41.2453 19.0107 41.2456C19.0114 41.2462 19.0121 41.2469 19.0129 41.2475C19.0144 41.2489 19.0162 41.2505 19.0182 41.2522C19.0221 41.2557 19.0269 41.2599 19.0325 41.2648C19.0437 41.2746 19.0583 41.2873 19.076 41.3027C19.1114 41.3333 19.1597 41.3746 19.2198 41.4251C19.3397 41.526 19.5077 41.6642 19.7155 41.8275C20.128 42.1517 20.713 42.5869 21.4014 43.0273C22.6229 43.8085 24.7594 45 27 45V39C26.6216 39 25.7581 38.6915 24.6343 37.9727C24.1502 37.6631 23.7262 37.3483 23.4229 37.11C23.2728 36.992 23.1562 36.8959 23.081 36.8327C23.0435 36.8011 23.0166 36.778 23.0012 36.7647C22.9935 36.7581 22.9888 36.7539 22.987 36.7524C22.9862 36.7516 22.9861 36.7515 22.9867 36.7521C22.9871 36.7524 22.9876 36.7529 22.9883 36.7536C22.9887 36.7539 22.9891 36.7542 22.9896 36.7547C22.9898 36.7549 22.9902 36.7552 22.9903 36.7553C22.9907 36.7557 22.9911 36.756 21 39ZM27 45C29.2406 45 31.3771 43.8085 32.5986 43.0273C33.287 42.5869 33.872 42.1517 34.2845 41.8275C34.4923 41.6642 34.6603 41.526 34.7802 41.4251C34.8403 41.3746 34.8886 41.3333 34.924 41.3027C34.9417 41.2873 34.9563 41.2746 34.9675 41.2648C34.9731 41.2599 34.9779 41.2557 34.9818 41.2522C34.9838 41.2505 34.9856 41.2489 34.9871 41.2475C34.9879 41.2469 34.9886 41.2462 34.9893 41.2456C34.9896 41.2453 34.9901 41.2449 34.9902 41.2448C34.9907 41.2444 34.9911 41.244 33 39C31.0089 36.756 31.0093 36.7557 31.0097 36.7553C31.0098 36.7552 31.0102 36.7549 31.0104 36.7547C31.0109 36.7542 31.0113 36.7539 31.0117 36.7536C31.0124 36.7529 31.0129 36.7524 31.0133 36.7521C31.0139 36.7515 31.0138 36.7516 31.013 36.7524C31.0112 36.7539 31.0065 36.7581 30.9988 36.7647C30.9834 36.778 30.9565 36.8011 30.919 36.8327C30.8438 36.8959 30.7272 36.992 30.5771 37.11C30.2738 37.3483 29.8498 37.6631 29.3657 37.9727C28.2419 38.6915 27.3784 39 27 39V45ZM33 39C31.0089 41.244 31.0093 41.2444 31.0098 41.2448C31.0099 41.2449 31.0104 41.2453 31.0107 41.2456C31.0114 41.2462 31.0121 41.2469 31.0129 41.2475C31.0144 41.2489 31.0162 41.2505 31.0182 41.2522C31.0221 41.2557 31.0269 41.2599 31.0325 41.2648C31.0437 41.2746 31.0583 41.2873 31.076 41.3027C31.1114 41.3333 31.1597 41.3746 31.2198 41.4251C31.3397 41.526 31.5077 41.6642 31.7155 41.8275C32.128 42.1517 32.713 42.5869 33.4014 43.0273C34.6229 43.8085 36.7594 45 39 45V39C38.6216 39 37.7581 38.6915 36.6343 37.9727C36.1502 37.6631 35.7262 37.3483 35.4229 37.11C35.2728 36.992 35.1562 36.8959 35.081 36.8327C35.0435 36.8011 35.0166 36.778 35.0012 36.7647C34.9935 36.7581 34.9888 36.7539 34.987 36.7524C34.9862 36.7516 34.9861 36.7515 34.9867 36.7521C34.9871 36.7524 34.9876 36.7529 34.9883 36.7536C34.9887 36.7539 34.9891 36.7542 34.9896 36.7547C34.9898 36.7549 34.9902 36.7552 34.9903 36.7553C34.9907 36.7557 34.9911 36.756 33 39ZM39 45C41.2406 45 43.3771 43.8085 44.5986 43.0273C45.287 42.5869 45.872 42.1517 46.2845 41.8275C46.4923 41.6642 46.6603 41.526 46.7802 41.4251C46.8403 41.3746 46.8886 41.3333 46.924 41.3027C46.9417 41.2873 46.9563 41.2746 46.9675 41.2648C46.9731 41.2599 46.9779 41.2557 46.9818 41.2522C46.9838 41.2505 46.9856 41.2489 46.9871 41.2475C46.9879 41.2469 46.9886 41.2462 46.9893 41.2456C46.9896 41.2453 46.9901 41.2449 46.9902 41.2448C46.9907 41.2444 46.9911 41.244 45 39C43.0089 36.756 43.0093 36.7557 43.0097 36.7553C43.0098 36.7552 43.0102 36.7549 43.0104 36.7547C43.0109 36.7542 43.0113 36.7539 43.0117 36.7536C43.0124 36.7529 43.0129 36.7524 43.0133 36.7521C43.0139 36.7515 43.0138 36.7516 43.013 36.7524C43.0112 36.7539 43.0065 36.7581 42.9988 36.7647C42.9834 36.778 42.9565 36.8011 42.919 36.8327C42.8438 36.8959 42.7272 36.992 42.5771 37.11C42.2738 37.3483 41.8498 37.6631 41.3657 37.9727C40.2419 38.6915 39.3784 39 39 39V45Z" fill="url(#paint2_linear_24_5)" mask="url(#path-4-outside-2_24_5)"/>
<defs>
<linearGradient id="paint0_linear_24_5" x1="87.2647" y1="94.3465" x2="35.1227" y2="-51.9519" gradientUnits="userSpaceOnUse">
<stop stop-color="#B1F20E"/>
<stop offset="0.851705" stop-color="#30C392" stop-opacity="0.9"/>
</linearGradient>
<linearGradient id="paint1_linear_24_5" x1="54.7059" y1="82.7099" x2="1.98488" y2="-0.815243" gradientUnits="userSpaceOnUse">
<stop stop-color="#B1F20E"/>
<stop offset="0.851705" stop-color="#30C392" stop-opacity="0.9"/>
</linearGradient>
<linearGradient id="paint2_linear_24_5" x1="54.7059" y1="43.5673" x2="54.3393" y2="35.3395" gradientUnits="userSpaceOnUse">
<stop stop-color="#B1F20E"/>
<stop offset="0.851705" stop-color="#30C392" stop-opacity="0.9"/>
</linearGradient>
</defs>
</svg>
