<svg width="45" height="65" viewBox="0 0 45 65" fill="none" xmlns="http://www.w3.org/2000/svg">
<mask id="path-1-inside-1_24_10" fill="white">
<path d="M22.5 54.675L22.5321 54.6396L22.5 54.675Z"/>
</mask>
<path d="M20.2802 52.6569C19.1657 53.8829 19.256 55.7802 20.4819 56.8948C21.7079 58.0093 23.6052 57.919 24.7198 56.6931L20.2802 52.6569ZM24.7519 56.6577C25.8665 55.4318 25.7762 53.5344 24.5502 52.4199C23.3243 51.3053 21.4269 51.3956 20.3124 52.6216L24.7519 56.6577ZM24.7198 56.6931L24.7519 56.6577L20.3124 52.6216L20.2802 52.6569L24.7198 56.6931Z" fill="url(#paint0_linear_24_10)" mask="url(#path-1-inside-1_24_10)"/>
<mask id="path-3-inside-2_24_10" fill="white">
<path d="M41.7857 51.4286V62.3571C41.7857 62.6104 41.7358 62.8612 41.6389 63.0952C41.5419 63.3292 41.3999 63.5418 41.2208 63.7208C41.0417 63.8999 40.8291 64.042 40.5951 64.1389C40.3611 64.2358 40.1104 64.2857 39.8571 64.2857H5.1428C4.88954 64.2857 4.63876 64.2358 4.40477 64.1389C4.17079 64.042 3.95818 63.8999 3.7791 63.7208C3.60001 63.5418 3.45796 63.3292 3.36104 63.0952C3.26412 62.8612 3.21423 62.6104 3.21423 62.3571V51.4286M41.7857 12.8571V1.92857C41.7857 1.41708 41.5825 0.926543 41.2208 0.564866C40.8591 0.203188 40.3686 0 39.8571 0H5.1428C4.63132 0 4.14078 0.203188 3.7791 0.564866C3.41742 0.926543 3.21423 1.41708 3.21423 1.92857V12.8571"/>
</mask>
<path d="M44.7857 51.4286C44.7857 49.7717 43.4425 48.4286 41.7857 48.4286C40.1288 48.4286 38.7857 49.7717 38.7857 51.4286H44.7857ZM41.7857 62.3571H44.7857H41.7857ZM39.8571 64.2857V67.2857V64.2857ZM5.1428 64.2857V67.2857V64.2857ZM3.21423 62.3571H6.21423H3.21423ZM6.21423 51.4286C6.21423 49.7717 4.87109 48.4286 3.21423 48.4286C1.55738 48.4286 0.214233 49.7717 0.214233 51.4286H6.21423ZM38.7857 12.8571C38.7857 14.514 40.1288 15.8571 41.7857 15.8571C43.4425 15.8571 44.7857 14.514 44.7857 12.8571H38.7857ZM41.7857 1.92857H44.7857H41.7857ZM0.214233 12.8571C0.214233 14.514 1.55738 15.8571 3.21423 15.8571C4.87109 15.8571 6.21423 14.514 6.21423 12.8571H0.214233ZM38.7857 51.4286V62.3571H44.7857V51.4286H38.7857ZM38.7857 62.3571C38.7857 62.2165 38.8134 62.0771 38.8672 61.9471L44.4105 64.2432C44.6582 63.6452 44.7857 63.0043 44.7857 62.3571H38.7857ZM38.8672 61.9471C38.9211 61.8171 39 61.699 39.0995 61.5995L43.3421 65.8422C43.7998 65.3845 44.1628 64.8412 44.4105 64.2432L38.8672 61.9471ZM39.0995 61.5995C39.199 61.5 39.3171 61.4211 39.4471 61.3673L41.7432 66.9106C42.3411 66.6629 42.8845 66.2998 43.3421 65.8422L39.0995 61.5995ZM39.4471 61.3673C39.5771 61.3134 39.7164 61.2857 39.8571 61.2857V67.2857C40.5043 67.2857 41.1452 67.1582 41.7432 66.9106L39.4471 61.3673ZM39.8571 61.2857H5.1428V67.2857H39.8571V61.2857ZM5.1428 61.2857C5.28349 61.2857 5.42281 61.3134 5.55282 61.3673L3.25672 66.9106C3.8547 67.1582 4.4956 67.2857 5.1428 67.2857V61.2857ZM5.55282 61.3673C5.68282 61.4211 5.80093 61.5 5.90042 61.5995L1.65778 65.8422C2.11543 66.2998 2.65875 66.6629 3.25672 66.9106L5.55282 61.3673ZM5.90042 61.5995C5.99992 61.699 6.07884 61.8171 6.13268 61.9471L0.589399 64.2432C0.83708 64.8412 1.20011 65.3845 1.65778 65.8422L5.90042 61.5995ZM6.13268 61.9471C6.18652 62.0771 6.21423 62.2164 6.21423 62.3571H0.214233C0.214233 63.0044 0.341716 63.6453 0.589399 64.2432L6.13268 61.9471ZM6.21423 62.3571V51.4286H0.214233V62.3571H6.21423ZM44.7857 12.8571V1.92857H38.7857V12.8571H44.7857ZM44.7857 1.92857C44.7857 0.621438 44.2664 -0.632165 43.3421 -1.55645L39.0995 2.68619C38.8985 2.48525 38.7857 2.21273 38.7857 1.92857H44.7857ZM43.3421 -1.55645C42.4178 -2.48074 41.1642 -3 39.8571 -3V3C39.5729 3 39.3004 2.88712 39.0995 2.68619L43.3421 -1.55645ZM39.8571 -3H5.1428V3H39.8571V-3ZM5.1428 -3C3.83567 -3 2.58206 -2.48074 1.65778 -1.55645L5.90042 2.68619C5.69949 2.88712 5.42697 3 5.1428 3V-3ZM1.65778 -1.55645C0.733493 -0.632169 0.214233 0.621432 0.214233 1.92857H6.21423C6.21423 2.21273 6.10135 2.48525 5.90042 2.68619L1.65778 -1.55645ZM0.214233 1.92857V12.8571H6.21423V1.92857H0.214233Z" fill="url(#paint1_linear_24_10)" mask="url(#path-3-inside-2_24_10)"/>
<mask id="path-5-inside-3_24_10" fill="white">
<path d="M33.75 20.8929L45 32.1429L33.75 43.3929M11.25 20.8929L0 32.1429L11.25 43.3929"/>
</mask>
<path d="M35.8713 18.7715C34.6997 17.6 32.8003 17.6 31.6287 18.7715C30.4571 19.9431 30.4571 21.8426 31.6287 23.0142L35.8713 18.7715ZM45 32.1429L47.1213 34.2642C48.2929 33.0926 48.2929 31.1931 47.1213 30.0215L45 32.1429ZM31.6287 41.2715C30.4571 42.4431 30.4571 44.3426 31.6287 45.5142C32.8003 46.6857 34.6997 46.6857 35.8713 45.5142L31.6287 41.2715ZM13.3713 23.0142C14.5429 21.8426 14.5429 19.9431 13.3713 18.7715C12.1997 17.6 10.3003 17.6 9.12868 18.7715L13.3713 23.0142ZM0 32.1429L-2.12132 30.0215C-3.29289 31.1931 -3.29289 33.0926 -2.12132 34.2642L0 32.1429ZM9.12868 45.5142C10.3003 46.6857 12.1997 46.6857 13.3713 45.5142C14.5429 44.3426 14.5429 42.4431 13.3713 41.2715L9.12868 45.5142ZM31.6287 23.0142L42.8787 34.2642L47.1213 30.0215L35.8713 18.7715L31.6287 23.0142ZM42.8787 30.0215L31.6287 41.2715L35.8713 45.5142L47.1213 34.2642L42.8787 30.0215ZM9.12868 18.7715L-2.12132 30.0215L2.12132 34.2642L13.3713 23.0142L9.12868 18.7715ZM-2.12132 34.2642L9.12868 45.5142L13.3713 41.2715L2.12132 30.0215L-2.12132 34.2642Z" fill="url(#paint2_linear_24_10)" mask="url(#path-5-inside-3_24_10)"/>
<defs>
<linearGradient id="paint0_linear_24_10" x1="22.5451" y1="54.6935" x2="22.5121" y2="54.6093" gradientUnits="userSpaceOnUse">
<stop stop-color="#B1F20E"/>
<stop offset="0.851705" stop-color="#30C392" stop-opacity="0.9"/>
</linearGradient>
<linearGradient id="paint1_linear_24_10" x1="57.3844" y1="97.8713" x2="-20.1837" y2="-32.7117" gradientUnits="userSpaceOnUse">
<stop stop-color="#B1F20E"/>
<stop offset="0.851705" stop-color="#30C392" stop-opacity="0.9"/>
</linearGradient>
<linearGradient id="paint2_linear_24_10" x1="63.1985" y1="55.1478" x2="52.5191" y2="-4.77993" gradientUnits="userSpaceOnUse">
<stop stop-color="#B1F20E"/>
<stop offset="0.851705" stop-color="#30C392" stop-opacity="0.9"/>
</linearGradient>
</defs>
</svg>
