<svg width="80" height="80" viewBox="0 0 80 80" fill="none" xmlns="http://www.w3.org/2000/svg">
              <g clip-path="url(#clip0_24_2)">
              <path d="M65.6748 10.6978L65.6848 10.6939L65.6946 10.6897C66.5231 10.3358 67.4258 10.1908 68.3235 10.2676C69.2187 10.3441 70.0814 10.6387 70.8363 11.1257C71.5753 11.6266 72.1812 12.2999 72.6017 13.0874C73.0232 13.8767 73.2457 14.757 73.25 15.6517C73.25 15.6523 73.25 15.6528 73.25 15.6534L73.25 58.1889C73.2233 59.0581 72.9909 59.9087 72.5718 60.6707C72.1511 61.4356 71.5545 62.0893 70.8311 62.5779C69.9165 63.1907 68.8452 63.5281 67.7445 63.55C67.0365 63.546 66.3353 63.4113 65.6762 63.1527C65.6755 63.1524 65.6749 63.1522 65.6742 63.1519L35.2783 51.0036L34.25 50.5926V51.7V64.35C34.25 65.8011 33.6766 67.1934 32.6547 68.2236C31.6334 69.2532 30.2468 69.8377 28.7968 69.85H25.6528C24.6096 69.8426 23.5896 69.5413 22.7098 68.9808C21.8297 68.42 21.1255 67.6224 20.6781 66.6796C20.678 66.6793 20.6778 66.6789 20.6776 66.6786L13.1783 50.78L12.9754 50.3499L12.4998 50.35C11.0637 50.3504 9.68437 49.7891 8.65663 48.786C7.63097 47.785 7.03666 46.4232 7 44.9907V44.35V43.6H6.25H0.75V30.1H6.25H7V29.35V28.85C7 27.3913 7.57946 25.9924 8.61091 24.9609C9.64236 23.9295 11.0413 23.35 12.5 23.35H32.2487C33.1338 23.3528 34.0108 23.1815 34.8298 22.8459C34.8315 22.8452 34.8332 22.8445 34.835 22.8437L65.6748 10.6978ZM78.0391 40.7391C77.1861 41.5921 76.0817 42.136 74.9 42.2986V31.4013C76.0817 31.564 77.1861 32.1079 78.0391 32.9609C79.0705 33.9924 79.65 35.3913 79.65 36.85C79.65 38.3087 79.0705 39.7076 78.0391 40.7391ZM29.5 28.85V28.1H28.75H12.5H11.75V28.85V45V45.75H12.5H28.75H29.5V45V28.85ZM28.75 65.1H29.5V64.35V51.1V50.35H28.75H19.45H18.275L18.7697 51.4158L24.9197 64.6658L25.1213 65.1H25.6H28.75ZM36.509 46.418L36.5401 46.4339L36.5726 46.4468L67.4726 58.7468L68.5 59.1558V58.05V15.65V14.5442L67.4726 14.9532L36.5767 27.2516C36.576 27.2519 36.5752 27.2521 36.5745 27.2524C36.0141 27.4715 35.4364 27.6432 34.8474 27.7657L34.25 27.8899V28.5V45V45.5541L34.7796 45.7169C35.3753 45.9 35.9539 46.1346 36.509 46.418Z" fill="url(#paint0_linear_24_2)" stroke="white" stroke-width="1.5"/>
              </g>
              <defs>
              <linearGradient id="paint0_linear_24_2" x1="112.915" y1="102.522" x2="70.5423" y2="-53.9121" gradientUnits="userSpaceOnUse">
              <stop stop-color="#B1F20E"/>
              <stop offset="0.851705" stop-color="#30C392" stop-opacity="0.9"/>
              </linearGradient>
              <clipPath id="clip0_24_2">
              <rect width="80" height="80" fill="white"/>
              </clipPath>
              </defs>
              </svg>