<svg width="68" height="56" viewBox="0 0 68 56" fill="none" xmlns="http://www.w3.org/2000/svg">
<path d="M11.1893 51.9393C10.6036 52.5251 10.6036 53.4749 11.1893 54.0606C11.7751 54.6464 12.7249 54.6464 13.3107 54.0606L19.7425 47.6288C20.8943 48.5728 22.1807 49.3442 23.5616 49.9161C25.4061 50.6801 27.383 51.0734 29.3794 51.0734C31.3759 51.0734 33.3528 50.6801 35.1973 49.9161C37.0418 49.1521 38.7178 48.0323 40.1295 46.6206C41.5412 45.2089 42.661 43.5329 43.425 41.6884C44.189 39.8439 44.5823 37.867 44.5823 35.8705C44.5823 33.8741 44.189 31.8972 43.425 30.0527C42.661 28.2082 41.5412 26.5322 40.1295 25.1205C37.2784 22.2694 33.4115 20.6677 29.3794 20.6677C25.3474 20.6677 21.4805 22.2694 18.6294 25.1205C15.7783 27.9716 14.1766 31.8385 14.1766 35.8705C14.1766 39.3995 15.4035 42.8019 17.6212 45.5075L11.1893 51.9393Z" stroke="url(#paint0_linear_25_3)" stroke-width="3" stroke-linecap="round" stroke-linejoin="round"/>
<mask id="path-2-outside-1_25_3" maskUnits="userSpaceOnUse" x="0" y="0.666687" width="68" height="51" fill="black">
<rect fill="white" y="0.666687" width="68" height="51"/>
<path d="M6.08336 38.163C4.05788 34.6735 2.99395 30.7093 3.00003 26.6745C3.00003 13.9681 13.3539 3.66669 26.125 3.66669H41.5417C54.3128 3.66669 64.6666 13.9681 64.6666 26.6745C64.6666 36.6953 58.2317 45.2177 49.25 48.375"/>
</mask>
<path d="M3.48877 39.669C4.32052 41.102 6.15642 41.5893 7.58938 40.7576C9.02233 39.9258 9.5097 38.0899 8.67795 36.657L3.48877 39.669ZM3.00003 26.6745L6.00003 26.679V26.6745H3.00003ZM48.2551 45.5448C46.692 46.0942 45.8703 47.8068 46.4198 49.3699C46.9692 50.933 48.6818 51.7547 50.2449 51.2052L48.2551 45.5448ZM8.67795 36.657C6.91879 33.6263 5.99474 30.1833 6.00002 26.679L2.93255e-05 26.67C-0.00684977 31.2352 1.19697 35.7207 3.48877 39.669L8.67795 36.657ZM6.00003 26.6745C6.00003 15.6393 14.9963 6.66669 26.125 6.66669V0.666687C11.7114 0.666687 2.59876e-05 12.2969 2.59876e-05 26.6745H6.00003ZM26.125 6.66669H41.5417V0.666687H26.125V6.66669ZM41.5417 6.66669C52.6703 6.66669 61.6666 15.6393 61.6666 26.6745H67.6666C67.6666 12.2969 55.9553 0.666687 41.5417 0.666687V6.66669ZM61.6666 26.6745C61.6666 35.3751 56.0804 42.794 48.2551 45.5448L50.2449 51.2052C60.3831 47.6414 67.6666 38.0155 67.6666 26.6745H61.6666Z" fill="url(#paint1_linear_25_3)" mask="url(#path-2-outside-1_25_3)"/>
<defs>
<linearGradient id="paint0_linear_25_3" x1="55.5512" y1="69.1081" x2="28.7569" y2="-6.07049" gradientUnits="userSpaceOnUse">
<stop stop-color="#B1F20E"/>
<stop offset="0.851705" stop-color="#30C392" stop-opacity="0.9"/>
</linearGradient>
<linearGradient id="paint1_linear_25_3" x1="89.6053" y1="71.7325" x2="59.8458" y2="-43.4378" gradientUnits="userSpaceOnUse">
<stop stop-color="#B1F20E"/>
<stop offset="0.851705" stop-color="#30C392" stop-opacity="0.9"/>
</linearGradient>
</defs>
</svg>
