<svg width="36" height="36" viewBox="0 0 36 36" fill="none" xmlns="http://www.w3.org/2000/svg">
<path fill-rule="evenodd" clip-rule="evenodd" d="M31.231 15.1244C31.1216 15.0188 31.0602 14.8757 31.0602 14.7266C31.0602 14.5775 31.1216 14.4344 31.231 14.3288L33.093 12.5368C33.2026 12.4313 33.3513 12.372 33.5063 12.372C33.6613 12.372 33.81 12.4313 33.9196 12.5368C34.0292 12.6423 34.0907 12.7854 34.0907 12.9346C34.0907 13.0838 34.0292 13.2269 33.9196 13.3324L32.0575 15.1244C31.9477 15.2297 31.7991 15.2888 31.6442 15.2888C31.4893 15.2888 31.3407 15.2297 31.231 15.1244ZM33.093 22.1332L31.231 20.3408C31.1767 20.2886 31.1336 20.2265 31.1043 20.1583C31.0749 20.09 31.0598 20.0169 31.0598 19.943C31.0598 19.8691 31.0749 19.796 31.1043 19.7277C31.1336 19.6595 31.1767 19.5974 31.231 19.5452C31.2852 19.493 31.3497 19.4515 31.4206 19.4233C31.4915 19.395 31.5675 19.3804 31.6442 19.3804C31.721 19.3804 31.797 19.395 31.8679 19.4233C31.9388 19.4515 32.0032 19.493 32.0575 19.5452L33.9196 21.3376C34.0292 21.4431 34.0907 21.5862 34.0907 21.7354C34.0907 21.8846 34.0292 22.0277 33.9196 22.1332C33.81 22.2387 33.6613 22.298 33.5063 22.298C33.3513 22.298 33.2026 22.2387 33.093 22.1332ZM32.7668 16.7732H35.3997C35.4778 16.7712 35.5555 16.7843 35.6282 16.8116C35.701 16.839 35.7673 16.8801 35.8232 16.9326C35.8792 16.985 35.9236 17.0477 35.954 17.117C35.9844 17.1862 36 17.2606 36 17.3358C36 17.411 35.9844 17.4854 35.954 17.5546C35.9236 17.6239 35.8792 17.6866 35.8232 17.739C35.7673 17.7915 35.701 17.8326 35.6282 17.86C35.5555 17.8873 35.4778 17.9004 35.3997 17.8984H32.7668C32.6888 17.9004 32.6111 17.8873 32.5383 17.86C32.4656 17.8326 32.3993 17.7915 32.3434 17.739C32.2874 17.6866 32.2429 17.6239 32.2126 17.5546C32.1822 17.4854 32.1666 17.411 32.1666 17.3358C32.1666 17.2606 32.1822 17.1862 32.2126 17.117C32.2429 17.0477 32.2874 16.985 32.3434 16.9326C32.3993 16.8801 32.4656 16.839 32.5383 16.8116C32.6111 16.7843 32.6888 16.7712 32.7668 16.7732ZM15.8715 19.1296C15.8715 19.2788 15.8099 19.4218 15.7003 19.5273C15.5908 19.6327 15.4422 19.692 15.2872 19.692H11.4608C11.3828 19.694 11.3051 19.6809 11.2323 19.6536C11.1596 19.6262 11.0933 19.5851 11.0374 19.5326C10.9814 19.4802 10.9369 19.4175 10.9066 19.3482C10.8762 19.279 10.8606 19.2046 10.8606 19.1294C10.8606 19.0542 10.8762 18.9798 10.9066 18.9106C10.9369 18.8413 10.9814 18.7786 11.0374 18.7262C11.0933 18.6737 11.1596 18.6326 11.2323 18.6052C11.3051 18.5779 11.3828 18.5648 11.4608 18.5668H15.2872C15.364 18.5668 15.44 18.5814 15.5109 18.6096C15.5818 18.6379 15.6462 18.6794 15.7005 18.7317C15.7547 18.7839 15.7978 18.846 15.8271 18.9143C15.8564 18.9825 15.8715 19.0557 15.8715 19.1296ZM10.8761 17.3348C10.8761 17.2609 10.8913 17.1877 10.9207 17.1195C10.9501 17.0512 10.9931 16.9892 11.0474 16.937C11.1017 16.8848 11.1662 16.8433 11.2371 16.8151C11.308 16.7869 11.3841 16.7723 11.4608 16.7724H15.2872C15.4395 16.7763 15.5842 16.8373 15.6905 16.9424C15.7968 17.0475 15.8563 17.1883 15.8563 17.335C15.8563 17.4817 15.7968 17.6225 15.6905 17.7276C15.5842 17.8327 15.4395 17.8937 15.2872 17.8976H11.4608C11.3058 17.8976 11.157 17.8383 11.0474 17.7328C10.9377 17.6272 10.8761 17.4841 10.8761 17.3348ZM10.8761 15.5404C10.8761 15.3911 10.9377 15.248 11.0474 15.1424C11.157 15.0369 11.3058 14.9776 11.4608 14.9776H13.6217C13.774 14.9815 13.9187 15.0425 14.025 15.1476C14.1313 15.2527 14.1908 15.3935 14.1908 15.5402C14.1908 15.6869 14.1313 15.8277 14.025 15.9328C13.9187 16.0379 13.774 16.0989 13.6217 16.1028H11.4608C11.3841 16.1029 11.308 16.0883 11.2371 16.0601C11.1662 16.0319 11.1017 15.9904 11.0474 15.9382C10.9931 15.886 10.9501 15.824 10.9207 15.7557C10.8913 15.6875 10.8761 15.6143 10.8761 15.5404ZM8.85741 32.8888C8.85736 32.8149 8.87243 32.7418 8.90178 32.6735C8.93112 32.6053 8.97415 32.5432 9.02842 32.491C9.08268 32.4388 9.14711 32.3974 9.21802 32.3691C9.28893 32.3409 9.36493 32.3263 9.44168 32.3264H15.079C15.234 32.3264 15.3826 32.3857 15.4921 32.4911C15.6017 32.5966 15.6633 32.7396 15.6633 32.8888C15.6633 33.038 15.6017 33.181 15.4921 33.2865C15.3826 33.3919 15.234 33.4512 15.079 33.4512H9.44168C9.36493 33.4513 9.28893 33.4367 9.21802 33.4085C9.14711 33.3803 9.08268 33.3388 9.02842 33.2866C8.97415 33.2344 8.93112 33.1723 8.90178 33.1041C8.87243 33.0358 8.85736 32.9627 8.85741 32.8888ZM8.75187 2.7808C8.75181 2.70691 8.76688 2.63374 8.79622 2.56546C8.82556 2.49718 8.86859 2.43513 8.92284 2.38286C8.9771 2.3306 9.04153 2.28914 9.11244 2.26085C9.18336 2.23256 9.25936 2.218 9.33613 2.218H9.40802C9.56033 2.22191 9.70504 2.2829 9.81133 2.38798C9.91763 2.49306 9.97711 2.63393 9.97711 2.7806C9.97711 2.92727 9.91763 3.06814 9.81133 3.17322C9.70504 3.2783 9.56033 3.33929 9.40802 3.3432H9.33613C9.25938 3.34325 9.18338 3.32874 9.11247 3.3005C9.04156 3.27225 8.97713 3.23083 8.92287 3.17859C8.8686 3.12636 8.82557 3.06434 8.79623 2.99608C8.76689 2.92783 8.75181 2.85467 8.75187 2.7808ZM10.402 2.7808C10.402 2.63154 10.4636 2.48839 10.5733 2.38284C10.6829 2.27729 10.8316 2.218 10.9867 2.218H15.1837C15.2618 2.216 15.3395 2.22907 15.4122 2.25644C15.4849 2.28381 15.5512 2.32493 15.6072 2.37737C15.6631 2.42981 15.7076 2.49251 15.738 2.56176C15.7683 2.63102 15.784 2.70543 15.784 2.7806C15.784 2.85577 15.7683 2.93018 15.738 2.99944C15.7076 3.06869 15.6631 3.13139 15.6072 3.18383C15.5512 3.23627 15.4849 3.27739 15.4122 3.30476C15.3395 3.33213 15.2618 3.3452 15.1837 3.3432H10.9867C10.9099 3.34325 10.8339 3.32874 10.763 3.3005C10.692 3.27226 10.6276 3.23085 10.5733 3.17862C10.519 3.12639 10.4759 3.06437 10.4465 2.99611C10.4171 2.92785 10.402 2.85469 10.402 2.7808ZM1.17102 2.32V33.68C1.17146 33.9969 1.30241 34.3006 1.53517 34.5247C1.76794 34.7487 2.0835 34.8748 2.41267 34.8752H22.1072C22.4365 34.8751 22.7524 34.7492 22.9853 34.5251C23.2183 34.301 23.3493 33.997 23.3497 33.68V23.3316C22.5989 22.7402 21.6642 22.4078 20.6943 22.3872V23.6452C20.6939 23.98 20.5555 24.301 20.3096 24.5378C20.0637 24.7746 19.7303 24.9079 19.3824 24.9084H18.3672L18.9075 27.9636C18.9399 28.1451 18.9307 28.3311 18.8805 28.5088C18.8303 28.6865 18.7404 28.8514 18.6169 28.9921C18.4935 29.1328 18.3396 29.2458 18.1661 29.3231C17.9925 29.4005 17.8035 29.4404 17.6122 29.44H15.8669C15.5567 29.4406 15.2565 29.3352 15.0195 29.1425C14.7826 28.9498 14.6245 28.6824 14.5733 28.388L13.512 22.3656C12.1593 22.2644 10.9 21.6624 9.99875 20.6862C9.09747 19.71 8.62435 18.4356 8.67879 17.1306C8.73323 15.8257 9.311 14.5919 10.2907 13.6884C11.2704 12.7849 12.5758 12.2821 13.9325 12.2856H20.5281C21.5552 12.2988 22.5543 11.963 23.3497 11.3372V2.32C23.3492 2.003 23.2182 1.69913 22.9852 1.47505C22.7523 1.25098 22.4365 1.12501 22.1072 1.1248H2.41018C2.08144 1.12586 1.76651 1.2522 1.53429 1.47618C1.30207 1.70016 1.17145 2.00356 1.17102 2.32ZM17.9218 22.3828H19.5233V23.6448C19.5229 23.6812 19.5077 23.716 19.481 23.7418C19.4543 23.7676 19.4182 23.7823 19.3803 23.7828H18.1686L17.9218 22.3828ZM16.7366 22.3828L17.7535 28.152C17.7586 28.1718 17.7583 28.1925 17.7528 28.2121C17.7473 28.2318 17.7366 28.2498 17.7219 28.2644C17.7094 28.2808 17.6928 28.2939 17.6736 28.3025C17.6544 28.311 17.6333 28.3147 17.6122 28.3132H15.8669C15.8328 28.3139 15.7996 28.3026 15.7736 28.2814C15.7475 28.2602 15.7305 28.2305 15.7256 28.198L14.7009 22.3832L16.7366 22.3828ZM13.9325 21.2576H16.6452V13.4116H13.9325C12.8516 13.4116 11.8149 13.8249 11.0506 14.5607C10.2862 15.2964 9.85681 16.2943 9.85681 17.3348C9.85681 18.3753 10.2862 19.3732 11.0506 20.1089C11.8149 20.8447 12.8516 21.2576 13.9325 21.2576ZM28.0961 7.7376C28.1151 7.71593 28.1406 7.7004 28.169 7.69309C28.1975 7.68578 28.2276 7.68705 28.2554 7.69672C28.2831 7.7064 28.307 7.72402 28.324 7.7472C28.341 7.77039 28.3502 7.79803 28.3504 7.8264V26.8432C28.3504 26.8716 28.3412 26.8994 28.3242 26.9227C28.3072 26.9459 28.2832 26.9636 28.2554 26.9733C28.2276 26.9829 28.1974 26.9841 28.1689 26.9767C28.1404 26.9692 28.115 26.9535 28.0961 26.9316L24.8913 23.2272C24.366 22.6028 23.7005 22.1012 22.9447 21.7601C22.189 21.419 21.3627 21.2474 20.5281 21.258H17.8141V13.4116H20.5281C21.3628 13.4223 22.1891 13.2507 22.9449 12.9095C23.7007 12.5683 24.3662 12.0666 24.8913 11.442L28.0944 7.738L28.0961 7.7376ZM30.6093 17.3348C30.6091 17.6238 30.4974 17.9025 30.296 18.1168C30.0945 18.3311 29.8176 18.4658 29.5189 18.4948V16.1748C29.8177 16.2037 30.0946 16.3384 30.2961 16.5528C30.4975 16.7671 30.6092 17.0458 30.6093 17.3348ZM2.41267 36H22.1072C22.7462 35.9994 23.3588 35.7547 23.8107 35.3198C24.2626 34.8848 24.5167 34.2951 24.5174 33.68V24.5528L27.1976 27.6512C27.3192 27.7938 27.4721 27.9088 27.6454 27.9878C27.8186 28.0667 28.0079 28.1078 28.1995 28.108C28.3542 28.1079 28.5076 28.0818 28.6529 28.0308C28.9075 27.944 29.1277 27.783 29.2827 27.5701C29.4378 27.3573 29.5201 27.1032 29.5181 26.8432V19.622C30.1273 19.592 30.7012 19.3379 31.1213 18.9122C31.5415 18.4865 31.7758 17.9218 31.7758 17.3346C31.7758 16.7474 31.5415 16.1827 31.1213 15.757C30.7012 15.3313 30.1273 15.0772 29.5181 15.0472V7.8268C29.5182 7.56712 29.4352 7.31371 29.2804 7.10108C29.1255 6.88845 28.9063 6.72695 28.6526 6.63857C28.399 6.5502 28.1232 6.53925 27.8628 6.60722C27.6024 6.67519 27.3702 6.81877 27.1976 7.0184L24.5174 10.1164V2.32C24.5167 1.70489 24.2626 1.11516 23.8107 0.680214C23.3588 0.245267 22.7462 0.000635333 22.1072 0H2.41018C1.77123 0.000846584 1.1587 0.245546 0.706897 0.680447C0.255091 1.11535 0.000879491 1.70496 0 2.32V33.68C0.000880654 34.2955 0.255435 34.8854 0.70778 35.3204C1.16012 35.7554 1.77329 35.9998 2.41267 36Z" fill="white"/>
</svg>
