<svg width="79" height="77" viewBox="0 0 79 77" fill="none" xmlns="http://www.w3.org/2000/svg">
<path fill-rule="evenodd" clip-rule="evenodd" d="M31.9949 16.6616C31.333 16.6051 30.8267 16.0535 30.8267 15.3889C30.8267 14.7278 31.3329 14.1728 31.9949 14.1163H47.0029C47.6648 14.1728 48.171 14.7279 48.171 15.3889C48.171 16.0536 47.6649 16.6051 47.0029 16.6616H31.9949ZM21.7017 25.2878C21.0398 25.2312 20.5336 24.6762 20.5336 24.0151C20.5336 23.3504 21.0397 22.7989 21.7017 22.7424H57.297C57.9589 22.799 58.4651 23.3505 58.4651 24.0151C58.4651 24.6762 57.959 25.2313 57.297 25.2878H21.7017ZM16.2647 34.3382C15.9107 34.3665 15.5567 34.2463 15.2948 34.0059C15.0293 33.7619 14.8806 33.4225 14.8806 33.0654C14.8806 32.7083 15.0293 32.3654 15.2948 32.125C15.5567 31.8846 15.9107 31.7644 16.2647 31.7927H36.6001C36.954 31.7644 37.308 31.8846 37.5699 32.125C37.8354 32.3654 37.9841 32.7083 37.9841 33.0654C37.9841 33.4225 37.8354 33.7619 37.5699 34.0059C37.308 34.2463 36.954 34.3665 36.6001 34.3382H16.2647ZM69.9662 47.2531C69.7503 47.7658 69.5627 48.2925 69.4034 48.8264C69.4034 48.989 70.2387 51.1066 70.3626 51.4425C70.798 52.5773 70.4901 53.8607 69.5839 54.6738C69.3467 54.8894 67.7079 56.3389 67.6441 56.4839L67.5804 57.0177H79V0H0V57.0177H36.4272C36.4272 56.6995 36.4272 56.5192 36.2643 56.3566L34.452 54.6915C33.8326 54.1258 33.4786 53.3233 33.4821 52.4819H12.1799C11.833 52.4819 11.5002 52.337 11.2595 52.086C11.0224 51.835 10.895 51.4991 10.9091 51.1527C10.9056 48.3421 8.62248 46.0653 5.80837 46.0653C5.11812 46.0618 4.55531 45.5068 4.54118 44.8174V12.1653C4.54118 11.4617 5.10753 10.8926 5.80837 10.889C8.61895 10.8819 10.8985 8.6087 10.9091 5.80162C10.9091 5.0981 11.4755 4.52895 12.1798 4.52533H66.8229H66.8193C67.5237 4.52887 68.09 5.09805 68.09 5.80162C68.1007 8.6087 70.3802 10.8819 73.1908 10.889C73.8917 10.8925 74.458 11.4617 74.458 12.1653V44.8174C74.458 45.5174 73.8916 46.0901 73.1908 46.0937C72.0156 46.0901 70.8723 46.4967 69.9661 47.2426L69.9662 47.2531ZM53.6442 30.337C53.9239 30.5279 55.8283 31.8396 55.9734 31.8748C56.1185 31.9102 58.2848 31.5567 58.5998 31.5142C59.8317 31.3339 61.0387 31.9491 61.6086 33.0521C61.7643 33.3243 62.7696 35.1874 62.8758 35.2793C62.9855 35.3712 65.0138 35.9298 65.3146 36.0217C66.511 36.3611 67.357 37.4182 67.4349 38.6556C67.4349 38.9808 67.5694 41.0738 67.6331 41.2081C67.6968 41.3424 69.3357 42.7813 69.5729 43.0182H69.5764C69.8985 43.3187 70.1498 43.6899 70.3091 44.1035C70.8153 43.8984 71.3392 43.7499 71.8773 43.658V13.3319C68.6702 12.7803 66.1606 10.2703 65.6154 7.06724H13.3475C12.8024 10.2703 10.2927 12.7803 7.08565 13.3319V43.658C10.2891 44.206 12.7988 46.7126 13.3475 49.9121H34.1894C34.3452 49.5621 34.4761 49.1979 34.5788 48.8267C34.5788 48.6641 33.7363 46.5465 33.6195 46.2106C33.1983 45.0828 33.5169 43.8102 34.416 43.0076C34.6602 42.7813 36.2991 41.3318 36.3628 41.1975C36.4265 41.0631 36.5433 38.9703 36.561 38.645H36.5645C36.6424 37.4076 37.4919 36.3542 38.6848 36.0111C38.9821 35.9192 41.0033 35.3606 41.1131 35.2687C41.2193 35.1803 42.2175 33.3066 42.3803 33.0521C42.9714 31.9703 44.1785 31.3798 45.3996 31.5673C45.7182 31.5673 47.8916 31.9562 48.019 31.9279C48.1429 31.9031 50.0649 30.5633 50.373 30.337C51.3641 29.6582 52.6703 29.6582 53.6614 30.337L53.6442 30.337ZM57.0069 43.7959C59.0423 45.8111 59.6582 48.8549 58.568 51.5064C57.4743 54.1544 54.8902 55.8831 52.023 55.8831C49.1558 55.8831 46.5718 54.1543 45.478 51.5064C44.3878 48.8549 45.0037 45.811 47.0391 43.7959C49.7965 41.056 54.2495 41.056 57.0069 43.7959ZM51.9947 39.1787C55.8849 39.1787 59.3928 41.5155 60.883 45.1039C62.3732 48.6923 61.5591 52.8215 58.8122 55.5753C56.069 58.3258 51.9346 59.1565 48.3378 57.6823C44.7414 56.2046 42.3875 52.7116 42.3734 48.8263C42.3734 43.5198 46.6812 39.2138 51.9942 39.2138L51.9947 39.1787ZM53.8531 45.8569C54.338 45.4044 55.092 45.4009 55.5841 45.8463C56.0761 46.2918 56.1433 47.0413 55.7398 47.568L51.9523 51.722H51.9488C51.7081 51.9871 51.3647 52.1391 51.0072 52.1391C50.6496 52.1391 50.3063 51.9871 50.0656 51.722L48.2532 49.7387V49.7422C47.8497 49.2154 47.9134 48.4659 48.4054 48.0205C48.8974 47.5715 49.6514 47.5786 50.1364 48.0311L51.0426 48.9362L53.8885 45.8145L53.8531 45.8569ZM39.2375 61.8156L33.3544 71.9692L38.8446 70.746H38.8481C39.5029 70.6081 40.1542 71.0041 40.3348 71.651L42.0126 77L48.3558 65.9838C48.1399 65.8283 48.0585 65.7399 47.839 65.7682L45.3753 66.1394H45.3718C44.1505 66.3232 42.9471 65.7258 42.3524 64.6475C42.1967 64.3753 41.1914 62.5122 41.0852 62.4203C40.9755 62.3284 39.4534 61.9147 39.2092 61.8405L39.2375 61.8156ZM55.612 65.9589L61.9552 76.9751L63.6401 71.6261C63.8136 70.9756 64.4684 70.5761 65.1268 70.7211L70.5638 71.9443L64.7551 61.816C64.5108 61.8867 62.9427 62.3145 62.879 62.3958C62.8153 62.4771 61.764 64.3509 61.6118 64.623L61.6083 64.6195C61.0207 65.7013 59.8172 66.2988 58.5995 66.1149C58.281 66.0619 56.1076 65.7154 55.9731 65.7437L55.612 65.9589ZM53.166 64.5377L54.4262 63.6963H54.4226C55.0315 63.2827 55.7713 63.1165 56.5005 63.2261L58.9642 63.5974C59.1376 63.6327 59.3111 63.5479 59.3889 63.3888L60.5677 61.2888C60.9394 60.61 61.5624 60.1045 62.3093 59.8853L64.7021 59.1711H64.6986C64.8083 59.1004 64.8755 58.9767 64.872 58.8459L65.0455 56.449C65.0879 55.6853 65.4348 54.9712 66.0047 54.4656L67.8171 52.7899C67.9551 52.6803 68.0011 52.4894 67.9268 52.3303L67.0206 49.8696V49.8661C66.7587 49.1979 66.7587 48.4555 67.0206 47.7873L67.9268 45.3267V45.3232C68.0011 45.1641 67.9551 44.9732 67.8171 44.8636L66.0047 43.1878C65.4384 42.6787 65.0986 41.961 65.0631 41.1974L64.872 38.8076C64.8543 38.6555 64.7481 38.5283 64.5994 38.4823L62.3057 37.8141H62.3093C61.5624 37.5949 60.9394 37.0894 60.5677 36.4106L59.435 34.2646C59.3571 34.1056 59.1801 34.0207 59.0102 34.0561L56.5465 34.4273H56.543C55.8032 34.551 55.0422 34.3813 54.4227 33.9571L52.2281 32.4828H52.2316C52.09 32.3909 51.9095 32.3909 51.7679 32.4828L49.5768 33.9571C48.9644 34.3707 48.221 34.5404 47.4918 34.4273L45.0281 34.0561C44.8547 34.0242 44.6813 34.1091 44.5998 34.2646L43.4317 36.3646C43.0565 37.0434 42.4299 37.549 41.6831 37.7682L39.4 38.4823C39.23 38.5247 39.1062 38.6767 39.0991 38.8535L38.9362 41.1974C38.8902 41.9575 38.5433 42.6716 37.977 43.1807L36.1646 44.8565V44.8529C36.0266 44.9661 35.9841 45.1534 36.0549 45.3161L36.9611 47.7767C37.223 48.4449 37.223 49.1908 36.9611 49.859L36.0549 52.3196C35.9841 52.4823 36.0266 52.6696 36.1646 52.7828L37.977 54.4585C39.1274 55.5086 38.8831 56.6858 39.046 58.0787C39.046 58.3757 39.046 58.8918 39.1805 59.0544C39.2407 59.1181 39.315 59.1676 39.4 59.1888L41.6831 59.857V59.8605C42.4299 60.0762 43.0565 60.5817 43.4317 61.264L44.5998 63.364V63.3605C44.6813 63.516 44.8547 63.6009 45.0282 63.5691L47.4919 63.1978C48.9219 62.9893 49.6405 63.7494 50.7342 64.4564L51.7678 65.1458C51.9059 65.2448 52.0935 65.2448 52.2315 65.1458L53.1377 64.513L53.166 64.5377ZM15.4965 44.6268C15.054 45.1536 14.2753 45.2349 13.7373 44.8106C13.1993 44.3864 13.093 43.6122 13.5001 43.0607L17.1814 38.4824C17.592 37.9486 18.254 37.6693 18.9265 37.7435C19.5991 37.8178 20.1831 38.2349 20.4698 38.843L21.4468 41.0349L22.9228 39.7586H22.9264C23.2449 39.4652 23.691 39.3556 24.1087 39.4616C24.5263 39.5712 24.8626 39.8823 25.0007 40.2924L26.1051 42.601H30.1581C30.5121 42.5692 30.8661 42.6894 31.128 42.9333C31.3935 43.1737 31.5422 43.5131 31.5422 43.8702C31.5422 44.2274 31.3935 44.5702 31.128 44.8107C30.8661 45.0546 30.5121 45.1748 30.1581 45.143H26.1158C25.1318 45.1607 24.2292 44.6056 23.7973 43.7218L23.3442 42.8168L22.1407 43.8561L21.7513 44.1107H21.7478C21.323 44.291 20.8381 44.2768 20.424 44.0788C20.0063 43.8809 19.6948 43.5132 19.5638 43.0713L18.5302 40.7804L15.4965 44.6268Z" fill="white"/>
</svg>
