<svg width="91" height="85" viewBox="0 0 91 85" fill="none" xmlns="http://www.w3.org/2000/svg">
<path fill-rule="evenodd" clip-rule="evenodd" d="M45.1106 15.4607C56.1616 15.4607 66.0016 20.6482 72.3296 28.7187C72.3804 28.7812 72.3804 28.8671 72.3296 28.9296C72.2788 28.9921 72.1968 29.0156 72.1226 28.9804C66.4664 26.4492 60.7556 24.539 54.9426 23.6484C54.8918 23.6406 54.8449 23.6523 54.8059 23.6875C54.7668 23.7226 54.7473 23.7656 54.7473 23.8164V37.6874C54.7473 37.7381 54.7277 37.7811 54.6887 37.8163L45.2278 46.1327C45.1614 46.1913 45.0676 46.1913 45.0012 46.1327L35.5403 37.8163C35.5013 37.7811 35.4817 37.7382 35.4817 37.6874L35.4778 23.8204C35.4778 23.7696 35.4583 23.7227 35.4192 23.6915C35.3802 23.6563 35.3333 23.6446 35.2825 23.6524C29.47 24.543 23.7595 26.4532 18.1025 28.9844C18.0283 29.0156 17.9463 28.9961 17.8955 28.9336C17.8447 28.8711 17.8447 28.7852 17.8955 28.7227C24.2236 20.6485 34.0596 15.4607 45.1106 15.4607ZM11.2236 69.2927C9.56342 66.4177 5.88382 65.4294 3.00882 67.0896C0.133817 68.7498 -0.854483 72.4294 0.805717 75.3044C2.46592 78.1794 6.14552 79.1677 9.02052 77.5075C11.8955 75.8473 12.8838 72.1677 11.2236 69.2927ZM15.1767 67.3122C20.704 76.8825 30.1147 82.8082 40.2667 84.2532C40.3448 84.2649 40.4191 84.2219 40.4503 84.1477C40.4816 84.0735 40.4581 83.9915 40.3917 83.9446C35.3722 80.3118 30.8605 76.3196 27.1847 71.7336C27.1535 71.6945 27.1417 71.6437 27.1496 71.593C27.1574 71.5422 27.1886 71.5031 27.2316 71.4758L39.2396 64.5422C39.2826 64.5148 39.3138 64.4758 39.3216 64.4289L41.7904 52.0769C41.806 51.991 41.7592 51.9089 41.6771 51.8816L29.7431 47.8464C29.6963 47.8308 29.6455 47.8347 29.6025 47.862L17.5945 54.7956C17.5476 54.823 17.5008 54.8269 17.45 54.8073C17.3992 54.7917 17.364 54.7565 17.3484 54.7058C15.2156 49.2292 14.0125 43.3228 13.3757 37.1628C13.3679 37.0846 13.3093 37.0221 13.2273 37.0104C13.1492 36.9987 13.075 37.0417 13.0437 37.1159C9.2234 46.6237 9.6492 57.7409 15.1765 67.3109L15.1767 67.3122ZM78.8717 69.8161C77.2115 72.6911 78.1959 76.3708 81.0748 78.0309C83.9498 79.6911 87.6295 78.7067 89.2896 75.8278C90.9498 72.9528 89.9654 69.2731 87.0865 67.613C84.2115 65.9528 80.5357 66.9372 78.8717 69.8161ZM75.0475 67.3122C80.5748 57.7419 81.0006 46.6282 77.1764 37.1132C77.1452 37.039 77.0709 36.996 76.9928 37.0077C76.9147 37.0194 76.8522 37.0819 76.8444 37.16C76.2077 43.3241 75.0046 49.226 72.8717 54.703C72.8521 54.7499 72.817 54.7851 72.7701 54.8046C72.7193 54.8202 72.6725 54.8163 72.6256 54.7929L60.6176 47.8593C60.5746 47.8319 60.5238 47.828 60.477 47.8437L48.543 51.8789C48.4609 51.9062 48.4141 51.9921 48.4297 52.0742L50.8985 64.4262C50.9102 64.477 50.9376 64.516 50.9805 64.5395L62.9885 71.4731C63.0354 71.5004 63.0627 71.5395 63.0706 71.5902C63.0784 71.641 63.0667 71.6879 63.0354 71.7309C59.3596 76.3168 54.8479 80.3129 49.8284 83.9419C49.762 83.9887 49.7386 84.0708 49.7698 84.145C49.8011 84.2192 49.8753 84.2622 49.9534 84.2505C60.1094 82.8091 69.5195 76.883 75.0475 67.3122ZM45.1095 12.0312C48.4298 12.0312 51.1251 9.33977 51.1251 6.01557C51.1251 2.69527 48.4337 -3.05176e-05 45.1095 -3.05176e-05C41.7892 -3.05176e-05 39.0939 2.69137 39.0939 6.01557C39.0978 9.33977 41.7892 12.0312 45.1095 12.0312Z" fill="white"/>
</svg>
