<svg width="74" height="74" viewBox="0 0 74 74" fill="none" xmlns="http://www.w3.org/2000/svg">
<path d="M61.25 15.3125V70.4375C61.25 71.2498 60.9273 72.0287 60.353 72.6031C59.7787 73.1774 58.9997 73.5 58.1875 73.5H3.0625C2.25027 73.5 1.47132 73.1774 0.896986 72.6031C0.322656 72.0287 0 71.2498 0 70.4375V15.3125C0 14.5003 0.322656 13.7213 0.896986 13.147C1.47132 12.5727 2.25027 12.25 3.0625 12.25H58.1875C58.9997 12.25 59.7787 12.5727 60.353 13.147C60.9273 13.7213 61.25 14.5003 61.25 15.3125ZM70.4375 3.05176e-05H15.3125C14.5003 3.05176e-05 13.7213 0.322686 13.147 0.897017C12.5727 1.47135 12.25 2.2503 12.25 3.06253C12.25 3.87476 12.5727 4.65371 13.147 5.22804C13.7213 5.80237 14.5003 6.12503 15.3125 6.12503H67.375V58.1875C67.375 58.9998 67.6976 59.7787 68.272 60.353C68.8463 60.9274 69.6253 61.25 70.4375 61.25C71.2497 61.25 72.0287 60.9274 72.603 60.353C73.1774 59.7787 73.5 58.9998 73.5 58.1875V3.06253C73.5 2.2503 73.1774 1.47135 72.603 0.897017C72.0287 0.322686 71.2497 3.05176e-05 70.4375 3.05176e-05Z" fill="white"/>
</svg>
