<svg width="77" height="82" viewBox="0 0 77 82" fill="none" xmlns="http://www.w3.org/2000/svg">
<path fill-rule="evenodd" clip-rule="evenodd" d="M17.7833 17.2423H50.7405C52.3185 17.2423 53.6096 18.5181 53.6096 20.0775C53.6096 21.6369 52.3185 22.9127 50.7405 22.9127H17.7833C16.2052 22.9127 14.9141 21.6369 14.9141 20.0775C14.915 18.5173 16.2061 17.2423 17.7833 17.2423ZM50.7405 25.9244H17.7833C17.4798 25.9244 17.1806 25.9012 16.8893 25.8575C3.67 39.1115 -6.55099 56.975 5.07725 72.0274C10.0932 78.5211 17.2075 81.9989 25.475 81.9989H43.0496C48.6474 81.9989 53.7162 80.4044 57.9631 77.3593L55.0368 74.2611C52.7859 71.8774 54.5027 67.973 57.8019 67.973H58.5337V45.1845C58.5337 42.6107 60.5817 40.5021 63.1525 40.3658C60.1109 35.201 56.04 30.2735 51.6353 25.8575C51.3431 25.9012 51.0448 25.9244 50.7405 25.9244ZM34.2619 36.6781C43.0799 36.6781 50.228 43.7416 50.228 52.4554C50.228 61.1691 43.0799 68.2326 34.2619 68.2326C25.4438 68.2326 18.2957 61.1682 18.2957 52.4554C18.2957 43.7416 25.4438 36.6781 34.2619 36.6781ZM23.205 6.25123C12.7048 2.41616 11.8334 4.46993 16.1324 10.5335C17.3315 12.2249 18.0572 13.3027 18.5888 14.2298H49.9367C50.4682 13.3019 51.194 12.2249 52.3931 10.5335C56.692 4.46993 55.8206 2.41616 45.3204 6.25123C40.9123 7.86117 42.7687 -3.05176e-05 34.2627 -3.05176e-05C25.7568 -3.05176e-05 27.6123 7.86117 23.205 6.25123ZM63.417 43.3715H70.6483C71.6593 43.3715 72.4839 44.1863 72.4839 45.1854V70.9864H76.2643C76.9068 70.9864 77.2389 71.7429 76.801 72.2064L67.9049 81.6253C67.4333 82.1248 66.6329 82.1248 66.1604 81.6253L57.2643 72.2064C56.8256 71.7421 57.1585 70.9864 57.801 70.9864H61.5814V45.1845C61.5823 44.1863 62.406 43.3715 63.417 43.3715ZM34.2619 40.9467C40.6938 40.9467 45.9083 46.0996 45.9083 52.4554C45.9083 58.8111 40.6938 63.964 34.2619 63.964C27.83 63.964 22.6154 58.8111 22.6154 52.4554C22.6154 46.0996 27.83 40.9467 34.2619 40.9467ZM32.865 45.2068C32.865 44.3748 33.5474 43.7005 34.3893 43.7005C35.2312 43.7005 35.9136 44.3748 35.9136 45.2068V45.5863C36.2154 45.666 36.5067 45.7774 36.7824 45.9179C37.3928 46.2281 37.92 46.6771 38.318 47.2211C38.8079 47.8937 38.6536 48.8311 37.9729 49.3152C37.4622 49.6785 36.8015 49.6827 36.2969 49.3794C36.1278 49.2783 35.9769 49.1421 35.8538 48.9742C35.6102 48.6409 35.2434 48.4584 34.8289 48.4584H33.9523C33.2621 48.4584 32.6916 49.0221 32.6916 49.7042C32.6916 50.3862 33.2621 50.9499 33.9523 50.9499H34.5749C36.9472 50.9499 38.8833 52.8632 38.8833 55.2083C38.8833 57.1798 37.509 58.8497 35.6604 59.3278V59.7048C35.6604 60.5368 34.9781 61.2111 34.1361 61.2111C33.2942 61.2111 32.6118 60.5368 32.6118 59.7048V59.3252C31.6468 59.0708 30.7936 58.4916 30.2075 57.6913C29.7176 57.0187 29.8719 56.0805 30.5526 55.5964C31.2367 55.1097 32.1852 55.2691 32.6717 55.9374C32.9153 56.2707 33.2812 56.4541 33.6974 56.4541H34.574C35.2668 56.4541 35.8347 55.8929 35.8347 55.2083C35.8347 54.5263 35.2642 53.9625 34.574 53.9625H33.9515C33.7408 53.9625 33.5344 53.9471 33.3315 53.9179C31.2237 53.6155 29.6421 51.8145 29.6421 49.7042C29.6421 47.7678 30.9774 46.0713 32.865 45.5838V45.2068Z" fill="white"/>
</svg>
