<svg width="94" height="70" viewBox="0 0 94 70" fill="none" xmlns="http://www.w3.org/2000/svg">
<path d="M0 48.8027C0 55.066 1.25892 61.083 3.78067 66.6934C4.42968 68.1986 5.85281 69.133 7.47924 69.133H81.9705C83.597 69.133 85.0201 68.1986 85.6691 66.6934C88.1908 61.083 89.4498 55.066 89.4498 48.8027C89.4498 37.9064 85.5479 27.9445 79.1204 20.1759C77.3297 18.1038 75.4179 16.192 73.3457 14.4013C65.5772 7.97771 55.6192 4.07193 44.719 4.07193C20.045 4.07584 0 24.1247 0 48.8027ZM41.8415 45.9173L67.5399 20.2189C69.6941 21.9275 71.6059 23.8393 73.3145 25.9935L47.6122 51.6919C46.799 52.466 45.7824 52.8727 44.7268 52.8727C43.6712 52.8727 42.6547 52.466 41.8415 51.6919C40.2541 50.1046 40.2541 47.5047 41.8415 45.9173Z" fill="white"/>
<path d="M86.5683 1.1905L77.4196 10.3392C79.4918 12.1298 81.4036 14.0416 83.1943 16.1138L92.3429 6.96511C93.9303 5.37777 93.9303 2.77783 92.3429 1.1905C90.7556 -0.396833 88.1517 -0.396833 86.5683 1.1905Z" fill="white"/>
</svg>
